<svg xmlns="http://www.w3.org/2000/svg" version="1.1" xmlns:xlink="http://www.w3.org/1999/xlink" xmlns:svgjs="http://svgjs.dev/svgjs" width="100%" height="100%" viewBox="0 0 1000 600"><rect width="1000" height="600" x="0" y="0" fill="#ffffff"/><g><rect width="333.3333333333333" height="333.3333333333333" rx="13.333333333333334" ry="13.333333333333334" y="263.6643858007684" fill="#ffffff" transform="matrix(0.5177222787029885,0,0,0.5177222787029886,0,77.20801057943224)" x="241.44218444824216"/><path d="M334.4686703262311 355.3310637540657L334.4686703262311 355.3310637540657Q349.9172684570723 355.3310637540657 361.8331563075396 361.7516245017293Q373.7490441580069 368.17218524939284 381.0107264009975 378.85442824004707Q388.2724086439882 389.5647086138788 389.59016565333394 402.37779272602836L389.59016565333394 402.37779272602836L369.71166098043676 402.37779272602836Q368.0854927561377 393.79835347369186 363.54343668137136 386.8450824456545Q359.001380606605 379.8637740344396 351.62754883090406 375.74227870733677Q344.2817544383807 371.5927459970564 333.9639974290349 371.5927459970564L333.9639974290349 371.5927459970564Q320.7583899523994 371.5927459970564 311.61820303651155 377.78900767929935Q302.4780161206237 384.01330674471996 297.79577312996946 396.93854038957977Q293.0854927561377 409.835736651262 293.0854927561377 430.02265253911247L293.0854927561377 430.02265253911247Q293.0854927561377 460.52732543630873 303.54343668137136 474.7983534736919Q314.001380606605 489.06938151107505 333.9639974290349 489.06938151107505L333.9639974290349 489.06938151107505Q344.2817544383807 489.06938151107505 351.62754883090406 484.7516245017293Q359.001380606605 480.4058301092059 363.54343668137136 473.1441478662153Q368.0854927561377 465.85442824004707 369.71166098043676 457.3871385204209L369.71166098043676 457.3871385204209L389.59016565333394 457.3871385204209Q388.4686703262311 466.6675123521966 384.59951144772646 475.3030263708882Q380.70231518604425 483.93854038957977 373.9453058402499 490.69554973537413Q367.18829649445547 497.45255908116854 357.34717499912836 501.4058301092059Q347.5060535038013 505.3310637540657 334.4686703262311 505.3310637540657L334.4686703262311 505.3310637540657Q314.78642733557695 505.3310637540657 300.90792266267977 496.35910113724333Q287.02941798978253 487.3591011372433 279.71166098043676 470.50863384752364Q272.393903971091 453.65816655780407 272.393903971091 429.82639085686947L272.393903971091 429.82639085686947Q272.393903971091 406.10676468864517 279.6836235972592 389.45255908116854Q286.9453058402499 372.7983534736919 300.82381051314707 364.0787273054676Q314.70231518604425 355.3310637540657 334.4686703262311 355.3310637540657ZM509.81446471875444 357.34975534285076L528.1789507000628 357.34975534285076L476.393903971091 503.3123721652807L453.87988527950216 503.3123721652807L403.02007219539 357.34975534285076L421.49670770940867 357.34975534285076L465.1789507000629 482.00396095032744L509.81446471875444 357.34975534285076ZM543.823810513147 503.3123721652807L521.6182030365114 503.3123721652807L521.6182030365114 479.4805964643461L543.823810513147 479.4805964643461L543.823810513147 503.3123721652807Z " fill="#aa0000" transform="matrix(0.5177222787029885,0,0,0.5177222787029886,0,77.20801057943224)"/><path d="M692.18830666564 392.6419894713568L692.18830666564 481.7481815558567Q692.18830666564 493.71151290053496 687.0316983274166 499.5098324986261Q681.8750899891933 505.3310703559983 668.8346004583083 505.3310703559983L668.8346004583083 505.3310703559983Q661.8216131183245 505.3310703559983 659.9652341165641 504.3455852069156Q658.1088551148038 503.3601000578329 658.1088551148038 503.3601000578329L658.1088551148038 503.3601000578329L658.1088551148038 493.2073111963531L666.542774530209 492.7947825292952Q672.3181758690192 492.38225386223735 674.6100017971186 489.7466540449232Q676.9247459844988 487.11105422760903 676.9247459844988 481.24397985167485L676.9247459844988 481.24397985167485L676.9247459844988 392.6419894713568L692.18830666564 392.6419894713568ZM676.4434625395979 358.72296573548755L692.6008353326978 358.72296573548755L692.6008353326978 374.5594828986535L676.4434625395979 374.5594828986535L676.4434625395979 358.72296573548755ZM734.1058028905758 477.9437505152119L718.9339152465585 477.9437505152119L718.9339152465585 392.6419894713568L733.6932742235178 392.6419894713568L733.6932742235178 405.0178494830929Q735.7559175588073 401.46551929453904 739.4228390437661 398.32571777304304Q743.0897605287249 395.18591625154704 748.3380419040723 393.28370073122466Q753.5863232794196 391.40440347018324 760.4159645451555 391.40440347018324L760.4159645451555 391.40440347018324Q768.5061100713459 391.40440347018324 775.3128330778007 394.6129597695222Q782.1195560842556 397.8215160688612 786.1990062362723 404.62823907531606Q790.30137464757 411.4349620817709 790.30137464757 422.1607074252755L790.30137464757 422.1607074252755L790.30137464757 477.9437505152119L775.0378139664289 477.9437505152119L775.0378139664289 423.65039427854003Q775.0378139664289 413.6809514913082 769.7895325910815 408.8451987830187Q764.5412512157342 404.0094460747292 756.2219230967338 404.0094460747292L756.2219230967338 404.0094460747292Q750.4465217579236 404.0094460747292 745.4045047161052 405.86582507648967Q740.3854059335678 407.72220407825006 737.2456044120718 411.4807986003329Q734.1058028905758 415.2393931224157 734.1058028905758 420.9231214241019L734.1058028905758 420.9231214241019L734.1058028905758 477.9437505152119ZM837.4900705071342 479.59386518344337L837.4900705071342 479.59386518344337Q829.2394971659768 479.59386518344337 822.8911393451417 476.66032799547634Q816.5198632650257 473.72679080750925 812.9446148171909 468.20349032078997Q809.346448110075 462.68018983407075 809.346448110075 454.8421451599712L809.346448110075 454.8421451599712Q809.346448110075 440.6557426650367 819.2471361194639 433.71151010289583Q829.1478241288528 426.79019580003603 851.0118434829199 426.2859940958542L851.0118434829199 426.2859940958542L866.2754041640611 425.87346542879635L866.2754041640611 419.20425197802746Q866.2754041640611 411.3662073039279 861.5771610114575 406.78255544772935Q856.878917858854 402.19890359153084 846.9782298494652 402.19890359153084L846.9782298494652 402.19890359153084Q839.6214686202665 402.2905766286548 834.0523316149853 405.6595607429607Q828.483194609704 409.05146311654767 826.8330799414725 416.72907997568024L826.8330799414725 416.72907997568024L813.4029800028108 416.72907997568024Q813.8842634477115 408.38683359739883 818.1012231554142 402.65726877715065Q822.2952646038359 396.92770395690246 829.8582901665635 393.94833025037343Q837.3983974700101 390.99187480312537 847.7116141464569 390.99187480312537L847.7116141464569 390.99187480312537Q858.8498881570194 390.99187480312537 866.2295676454991 394.10875806534034Q873.6321653932597 397.2485595868364 877.2990868782186 403.3677348148614Q880.9660083631774 409.46399178360554 880.9660083631774 418.3791946439117L880.9660083631774 418.3791946439117L880.9660083631774 477.9437505152119L867.9255188322926 477.9437505152119L866.8483606460859 461.94680553707894Q861.8980166413915 471.9162483243108 854.2662363008209 475.76651588351757Q846.6344559602502 479.59386518344337 837.4900705071342 479.59386518344337ZM842.0966406226137 468.61601898784784L842.0966406226137 468.61601898784784Q846.4052733674404 468.61601898784784 850.645151334424 467.05757735674035Q854.8850293014077 465.47621746635184 858.4373594899615 462.79478113047566Q861.9896896785154 460.1133447945995 864.0981695323668 456.79019719885554Q866.206649386218 453.44413134383063 866.2754041640611 449.89180115527677L866.2754041640611 449.89180115527677L866.2754041640611 435.29286999328434L853.5786885223911 435.5449708453753Q843.8384283279692 435.70539866034227 837.2838061736052 437.51594114354066Q830.7291840192413 439.3264836267391 827.4518729420594 443.1996694452269Q824.1974801241583 447.09577352299567 824.1974801241583 453.35245830670664L824.1974801241583 453.35245830670664Q824.1974801241583 460.5258734616574 829.1936606474147 464.58240535439313Q834.1898411706712 468.61601898784784 842.0966406226137 468.61601898784784ZM922.3793028839314 504.50601302188255L907.0469874249471 504.50601302188255L907.0469874249471 392.6419894713568L922.2188750689644 392.6419894713568L922.3793028839314 407.4930214854401Q923.8689897371959 404.83450340884497 926.2295704431382 401.9468027394399Q928.5672328897994 399.0591020700348 932.0049717819483 396.58393006768756Q935.4197924148162 394.10875806534034 940.0034442710148 392.55031643423285Q944.5870961272134 390.99187480312537 950.4312522438665 390.99187480312537L950.4312522438665 390.99187480312537Q960.6757141424704 390.99187480312537 968.4679222980078 395.64428143716685Q976.2601304535455 400.2966880712084 980.637517976215 409.8765204506634Q985.0149054988846 419.45635283011836 985.0149054988846 434.1240387699537L985.0149054988846 434.1240387699537Q985.0149054988846 448.8146429690701 980.7521092726199 458.9215953119879Q976.5122313056363 469.0285476549057 968.5137588165697 474.32266554881505Q960.4923680682224 479.59386518344337 949.1936662426929 479.59386518344337L949.1936662426929 479.59386518344337Q943.5099379410067 479.59386518344337 939.0867138997751 477.98958703377394Q934.6864081178245 476.3853088841044 931.4090970406425 473.77262732607124Q928.1547042227415 471.18286402731906 925.9774695910472 468.20349032078997Q923.777316700072 465.2470348735419 922.3793028839314 462.5197620191038L922.3793028839314 462.5197620191038L922.3793028839314 504.50601302188255ZM946.3059655732878 467.7222068758891L946.3059655732878 467.7222068758891Q956.8712831018255 467.7222068758891 963.5634148118753 459.6778978682607Q970.2326282626442 451.6335888606322 970.2326282626442 434.62824047413557L970.2326282626442 434.62824047413557Q970.2326282626442 420.0293093121432 964.1363712939002 411.4349620817709Q958.017196065875 402.8635331106796 946.3059655732878 402.8635331106796L946.3059655732878 402.8635331106796Q934.4343072657335 402.8635331106796 928.3151320377084 411.64122641529985Q922.2188750689644 420.44183797920107 922.2188750689644 434.62824047413557L922.2188750689644 434.62824047413557Q922.2188750689644 443.7955441865327 924.9461479234025 451.28981497141734Q927.6734207778408 458.80700401558295 933.036293449593 463.2531463160955Q938.3991661213453 467.7222068758891 946.3059655732878 467.7222068758891ZM1038.9644878463414 479.59386518344337L1038.9644878463414 479.59386518344337Q1027.1615843166305 479.59386518344337 1018.3380544934481 474.528929882344Q1009.5145246702658 469.4410763219636 1004.6329354434143 459.6320613496987Q999.774264475844 449.80012811815277 999.774264475844 435.6137256232183L999.774264475844 435.6137256232183Q999.774264475844 422.25238046239946 1004.3120798134806 412.19126463804366Q1008.849895151117 402.1301488136878 1017.6275884557373 396.5610118084066Q1026.4282000196386 390.99187480312537 1038.9644878463414 390.99187480312537L1038.9644878463414 390.99187480312537Q1050.7673913760527 390.99187480312537 1059.47632990283 396.1484831413487Q1068.1623501703266 401.30509147957207 1072.9522663600537 411.2745342668039Q1077.7421825497813 421.2668953133168 1077.7421825497813 435.6137256232183L1077.7421825497813 435.6137256232183Q1077.7421825497813 448.65421515410316 1073.3189585085497 458.55490316349204Q1068.9186527265992 468.45559117288093 1060.301387236946 474.02472817816215Q1051.6612034880118 479.59386518344337 1038.9644878463414 479.59386518344337ZM1038.9644878463414 467.5388608016412L1038.9644878463414 467.5388608016412Q1046.6421047054741 467.5388608016412 1051.9133043401025 463.6656749831534Q1057.207422234012 459.79248916466565 1059.911776829169 452.5274009725909Q1062.639049683607 445.2623127805162 1062.639049683607 435.29286999328434L1062.639049683607 435.29286999328434Q1062.639049683607 426.12556628088726 1060.2555507183838 418.8375598295316Q1057.8491334938794 411.52663511889483 1052.6237703778133 407.2409206333492Q1047.375489002466 402.95520614780355 1038.9644878463414 402.95520614780355L1038.9644878463414 402.95520614780355Q1031.2181162093661 402.95520614780355 1025.8552435376137 406.78255544772935Q1020.4923708658615 410.60990474765515 1017.7192614928613 417.87499293972985Q1014.9461521198612 425.14008113180455 1014.9461521198612 435.29286999328434L1014.9461521198612 435.29286999328434Q1014.9461521198612 444.27682763143355 1017.4213241222084 451.6335888606322Q1019.8964961245556 458.9674318305499 1025.190614018465 463.2531463160955Q1030.4618136530935 467.5388608016412 1038.9644878463414 467.5388608016412ZM1119.3159048855023 479.0209087014186L1119.3159048855023 479.0209087014186Q1112.3945905826426 479.0209087014186 1108.1547126156588 477.11869318109615Q1103.8919163893943 475.21647766077376 1101.6230087205759 472.00792136143474Q1099.3541010517574 468.7764468028148 1098.5748802362036 464.62824187295513Q1097.7956594206503 460.45711868381443 1097.7956594206503 455.9880581240208L1097.7956594206503 455.9880581240208L1097.7956594206503 355.3310633619006L1112.8071192497005 355.3310633619006L1112.8071192497005 454.5212895300373Q1112.8071192497005 460.93840212871527 1115.3281277706096 464.16987668733526Q1117.8491362915188 467.3784329866742 1122.3869516291552 467.7222068758891L1122.3869516291552 467.7222068758891L1126.993521744635 467.7909616537321L1126.993521744635 477.691649663121Q1125.0913062243126 478.2646061451458 1123.028662889023 478.6542165529227Q1120.966019553734 479.0209087014186 1119.3159048855023 479.0209087014186ZM1148.376257653801 392.6419894713568L1163.1356166307605 392.6419894713568L1163.1356166307605 477.9437505152119L1148.376257653801 477.9437505152119L1148.376257653801 392.6419894713568ZM1147.8720559496192 358.72296573548755L1163.4564722606942 358.72296573548755L1163.4564722606942 374.5594828986535L1147.8720559496192 374.5594828986535L1147.8720559496192 358.72296573548755ZM1234.4114029946481 392.55031643423285L1234.4114029946481 403.7802634819193L1215.205901717176 403.7802634819193L1215.205901717176 456.81311545813656Q1215.205901717176 461.35093079577314 1216.1455503476968 463.4594106496245Q1217.0851989782172 465.5678905034758 1219.3541066470357 466.1408469855006Q1221.623014315854 466.71380346752545 1225.5878731714656 466.71380346752545L1225.5878731714656 466.71380346752545L1234.91560469883 466.71380346752545L1234.91560469883 476.95826536612924Q1233.3571630677225 477.5312218481541 1230.1715250276643 477.9437505152119Q1226.9858869876061 478.35627918226976 1222.2876438350027 478.35627918226976L1222.2876438350027 478.35627918226976Q1213.4641140118206 478.35627918226976 1208.60544304425 475.97278021704653Q1203.7238538173988 473.56636299254234 1201.7987200377952 468.86811983993874Q1199.850667998911 464.16987668733526 1199.850667998911 457.31731716231843L1199.850667998911 457.31731716231843L1199.850667998911 403.7802634819193L1185.98512113391 403.7802634819193L1185.98512113391 392.6419894713568L1200.2631966659687 392.6419894713568L1203.9759546694895 367.79859641076064L1215.205901717176 367.79859641076064L1215.205901717176 392.55031643423285L1234.4114029946481 392.55031643423285ZM1279.3770277039557 479.59386518344337L1279.3770277039557 479.59386518344337Q1271.126454362798 479.59386518344337 1264.7780965419634 476.66032799547634Q1258.4297387211286 473.72679080750925 1254.8315720140126 468.20349032078997Q1251.2563235661778 462.68018983407075 1251.2563235661778 454.8421451599712L1251.2563235661778 454.8421451599712Q1251.2563235661778 440.6557426650367 1261.1570115755667 433.71151010289583Q1271.0576995849556 426.79019580003603 1292.9217189390224 426.2859940958542L1292.9217189390224 426.2859940958542L1308.1852796201638 425.87346542879635L1308.1852796201638 419.20425197802746Q1308.1852796201638 411.3662073039279 1303.4870364675598 406.78255544772935Q1298.7658750556757 402.19890359153084 1288.8651870462868 402.19890359153084L1288.8651870462868 402.19890359153084Q1281.531344076369 402.2905766286548 1275.962207071088 405.6595607429607Q1270.3930700658066 409.05146311654767 1268.7429553975749 416.72907997568024L1268.7429553975749 416.72907997568024L1255.2899371996323 416.72907997568024Q1255.7941389038142 408.38683359739883 1259.9881803522358 402.65726877715065Q1264.2051400599385 396.92770395690246 1271.7452473633853 393.94833025037343Q1279.3082729261127 390.99187480312537 1289.6214896025594 390.99187480312537L1289.6214896025594 390.99187480312537Q1300.7597636131222 390.99187480312537 1308.1394431016015 394.10875806534034Q1315.5191225900812 397.2485595868364 1319.1860440750402 403.3677348148614Q1322.8758838192798 409.46399178360554 1322.8758838192798 418.3791946439117L1322.8758838192798 418.3791946439117L1322.8758838192798 477.9437505152119L1309.835394288395 477.9437505152119L1308.7582361021887 461.94680553707894Q1303.807892097494 471.9162483243108 1296.1761117569235 475.76651588351757Q1288.5443314163526 479.59386518344337 1279.3770277039557 479.59386518344337ZM1284.0065160787162 468.61601898784784L1284.0065160787162 468.61601898784784Q1288.292230564262 468.61601898784784 1292.5550267905264 467.05757735674035Q1296.7949047575103 465.47621746635184 1300.347234946064 462.79478113047566Q1303.8995651346181 460.1133447945995 1305.9851267291883 456.79019719885554Q1308.0936065830397 453.44413134383063 1308.1852796201638 449.89180115527677L1308.1852796201638 449.89180115527677L1308.1852796201638 435.29286999328434L1295.4656457192127 435.5449708453753Q1285.7483037840716 435.70539866034227 1279.1707633704268 437.51594114354066Q1272.6161412160627 439.3264836267391 1269.361748398162 443.1996694452269Q1266.107355580261 447.09577352299567 1266.107355580261 453.35245830670664L1266.107355580261 453.35245830670664Q1266.107355580261 460.5258734616574 1271.1035361035174 464.58240535439313Q1276.0767983674928 468.61601898784784 1284.0065160787162 468.61601898784784ZM1364.128750525067 477.9437505152119L1348.9339446217687 477.9437505152119L1348.9339446217687 392.6419894713568L1363.7162218580092 392.6419894713568L1363.7162218580092 405.0178494830929Q1365.7788651932983 401.46551929453904 1369.4457866782573 398.32571777304304Q1373.1127081632162 395.18591625154704 1378.3609895385634 393.28370073122466Q1383.58635265463 391.40440347018324 1390.4389121796466 391.40440347018324L1390.4389121796466 391.40440347018324Q1398.5290577058372 391.40440347018324 1405.335780712292 394.6129597695222Q1412.1425037187469 397.8215160688612 1416.2219538707636 404.62823907531606Q1420.3014040227804 411.4349620817709 1420.3014040227804 422.1607074252755L1420.3014040227804 422.1607074252755L1420.3014040227804 477.9437505152119L1405.037843341639 477.9437505152119L1405.037843341639 423.65039427854003Q1405.037843341639 413.6809514913082 1399.812480225573 408.8451987830187Q1394.5641988502252 404.0094460747292 1386.221952471944 404.0094460747292L1386.221952471944 404.0094460747292Q1380.4465511331337 404.0094460747292 1375.4274523505965 405.86582507648967Q1370.3854353087781 407.72220407825006 1367.2456337872818 411.4807986003329Q1364.128750525067 415.2393931224157 1364.128750525067 420.9231214241019L1364.128750525067 420.9231214241019L1364.128750525067 477.9437505152119ZM1478.055417410882 479.59386518344337L1478.055417410882 479.59386518344337Q1466.2525138811707 479.59386518344337 1457.4289840579886 474.528929882344Q1448.6054542348065 469.4410763219636 1443.746783267236 459.6320613496987Q1438.8651940403843 449.80012811815277 1438.8651940403843 435.6137256232183L1438.8651940403843 435.6137256232183Q1438.8651940403843 422.25238046239946 1443.4030093780211 412.19126463804366Q1447.9408247156575 402.1301488136878 1456.741436279559 396.5610118084066Q1465.5191295841787 390.99187480312537 1478.055417410882 390.99187480312537L1478.055417410882 390.99187480312537Q1489.8583209405933 390.99187480312537 1498.5672594673706 396.1484831413487Q1507.2761979941479 401.30509147957207 1512.0431959245943 411.2745342668039Q1516.833112114322 421.2668953133168 1516.833112114322 435.6137256232183L1516.833112114322 435.6137256232183Q1516.833112114322 448.65421515410316 1512.432806332371 458.55490316349204Q1508.0095822911398 468.45559117288093 1499.3923168014862 474.02472817816215Q1490.775051311833 479.59386518344337 1478.055417410882 479.59386518344337ZM1478.055417410882 467.5388608016412L1478.055417410882 467.5388608016412Q1485.7330342700147 467.5388608016412 1491.0042339046431 463.6656749831534Q1496.2983517985522 459.79248916466565 1499.0256246529902 452.5274009725909Q1501.7299792481476 445.2623127805162 1501.7299792481476 435.29286999328434L1501.7299792481476 435.29286999328434Q1501.7299792481476 426.12556628088726 1499.3464802829244 418.8375598295316Q1496.9629813177012 411.52663511889483 1491.7146999423535 407.2409206333492Q1486.4664185670063 402.95520614780355 1478.055417410882 402.95520614780355L1478.055417410882 402.95520614780355Q1470.3090457739067 402.95520614780355 1464.9461731021543 406.78255544772935Q1459.5833004304018 410.60990474765515 1456.8101910574014 417.87499293972985Q1454.0599999436827 425.14008113180455 1454.0599999436827 435.29286999328434L1454.0599999436827 435.29286999328434Q1454.0599999436827 444.27682763143355 1456.53517194603 451.6335888606322Q1459.0103439483773 458.9674318305499 1464.2815435830053 463.2531463160955Q1469.5527432176336 467.5388608016412 1478.055417410882 467.5388608016412ZM1551.4855201471828 477.9437505152119L1533.3342587966367 477.9437505152119L1533.3342587966367 458.46323012636805L1551.4855201471828 458.46323012636805L1551.4855201471828 477.9437505152119ZM1575.824711503597 392.6419894713568L1590.6069887398376 392.6419894713568L1590.6069887398376 477.9437505152119L1575.824711503597 477.9437505152119L1575.824711503597 392.6419894713568ZM1575.3434280586962 358.72296573548755L1590.9278443697713 358.72296573548755L1590.9278443697713 374.5594828986535L1575.3434280586962 374.5594828986535L1575.3434280586962 358.72296573548755ZM1651.3174575751873 479.59386518344337L1651.3174575751873 479.59386518344337Q1639.514554045476 479.59386518344337 1630.691024222294 474.528929882344Q1621.8674943991118 469.4410763219636 1617.0088234315413 459.6320613496987Q1612.1272342046896 449.80012811815277 1612.1272342046896 435.6137256232183L1612.1272342046896 435.6137256232183Q1612.1272342046896 422.25238046239946 1616.6650495423264 412.19126463804366Q1621.2028648799628 402.1301488136878 1630.0034764438642 396.5610118084066Q1638.7811697484844 390.99187480312537 1651.3174575751873 390.99187480312537L1651.3174575751873 390.99187480312537Q1663.1203611048986 390.99187480312537 1671.829299631676 396.1484831413487Q1680.5382381584532 401.30509147957207 1685.3052360888996 411.2745342668039Q1690.0951522786272 421.2668953133168 1690.0951522786272 435.6137256232183L1690.0951522786272 435.6137256232183Q1690.0951522786272 448.65421515410316 1685.6948464966763 458.55490316349204Q1681.2716224554447 468.45559117288093 1672.6543569657915 474.02472817816215Q1664.0370914761384 479.59386518344337 1651.3174575751873 479.59386518344337ZM1651.3174575751873 467.5388608016412L1651.3174575751873 467.5388608016412Q1658.99507443432 467.5388608016412 1664.2662740689484 463.6656749831534Q1669.5603919628575 459.79248916466565 1672.287664817296 452.5274009725909Q1674.992019412453 445.2623127805162 1674.992019412453 435.29286999328434L1674.992019412453 435.29286999328434Q1674.992019412453 426.12556628088726 1672.6085204472297 418.8375598295316Q1670.2250214820065 411.52663511889483 1664.9767401066592 407.2409206333492Q1659.7284587313115 402.95520614780355 1651.3174575751873 402.95520614780355L1651.3174575751873 402.95520614780355Q1643.5710859382116 402.95520614780355 1638.2082132664596 406.78255544772935Q1632.845340594707 410.60990474765515 1630.0722312217072 417.87499293972985Q1627.322040107988 425.14008113180455 1627.322040107988 435.29286999328434L1627.322040107988 435.29286999328434Q1627.322040107988 444.27682763143355 1629.7972121103353 451.6335888606322Q1632.2723841126822 458.9674318305499 1637.5435837473105 463.2531463160955Q1642.814783381939 467.5388608016412 1651.3174575751873 467.5388608016412Z " fill="#000000" transform="matrix(0.5177222787029885,0,0,0.5177222787029886,0,77.20801057943224)"/></g></svg>